<svg width="78" height="78" viewBox="0 0 78 78" fill="none" xmlns="http://www.w3.org/2000/svg">
<g clip-path="url(#clip0_2715_51229)">
<rect width="78" height="78" rx="39" fill="#F7F7F7"/>
<path d="M39 49.8337C31.1035 49.873 23.5432 53.0346 17.9695 58.6282C12.3957 64.2219 9.26113 71.7934 9.25 79.69V80.625C9.25 81.1886 9.47388 81.7291 9.8724 82.1276C10.2709 82.5261 10.8114 82.75 11.375 82.75H66.8375C67.4011 82.75 67.9416 82.5261 68.3401 82.1276C68.7386 81.7291 68.9625 81.1886 68.9625 80.625V79.6475C68.94 71.7215 65.7713 64.1288 60.1528 58.5383C54.5344 52.9477 46.926 49.8168 39 49.8337ZM13.5 78.5C13.7693 71.8949 16.5826 65.6498 21.3512 61.0716C26.1199 56.4933 32.4744 53.9367 39.085 53.9367C45.6956 53.9367 52.0501 56.4933 56.8188 61.0716C61.5874 65.6498 64.4007 71.8949 64.67 78.5H13.5ZM39 47.9212C42.2333 47.8709 45.3147 46.5409 47.5692 44.2227C49.8237 41.9045 51.0673 38.7872 51.0275 35.5538C51.0503 32.3313 49.7992 29.2303 47.5466 26.9259C45.2939 24.6216 42.2221 23.3004 39 23.25C35.7667 23.3004 32.6853 24.6304 30.4308 26.9486C28.1763 29.2667 26.9327 32.3841 26.9725 35.6175C26.9497 38.8399 28.2008 41.9409 30.4534 44.2453C32.7061 46.5497 35.7779 47.8709 39 47.9212ZM39 27.5C41.1061 27.5502 43.1067 28.4323 44.5641 29.9535C46.0216 31.4747 46.8174 33.5112 46.7775 35.6175C46.8005 37.7129 45.9971 39.733 44.5414 41.2404C43.0858 42.7478 41.0949 43.6211 39 43.6712C36.8939 43.6211 34.8933 42.7389 33.4358 41.2177C31.9784 39.6965 31.1826 37.6601 31.2225 35.5538C31.1995 33.4584 32.0029 31.4383 33.4586 29.9309C34.9142 28.4235 36.9051 27.5502 39 27.5Z" fill="#E2E2E2"/>
</g>
<defs>
<clipPath id="clip0_2715_51229">
<rect width="78" height="78" rx="39" fill="white"/>
</clipPath>
</defs>
</svg>
