<svg xmlns="http://www.w3.org/2000/svg">
  <svg id="logo-icon" viewBox="0 0 112 63" fill="none" xmlns="http://www.w3.org/2000/svg">
    <path
      fill-rule="evenodd"
      clip-rule="evenodd"
      d="M40.1308 10.0846C37.6002 12.5972 36.5772 16.2244 37.4459 19.6003C38.3145 22.9762 40.942 25.5875 44.3377 26.449C47.7351 27.3123 51.3856 26.2947 53.9144 23.782L70.7975 7.00665C73.1827 4.6376 76.9947 4.58734 79.3153 6.89358C81.6359 9.19981 81.5874 12.9903 79.2022 15.3593L73.7624 20.7651L70.6826 17.7051L68.5989 28.5686L79.5324 26.4993L76.4527 23.4375L81.8925 18.0317C84.4213 15.5191 85.4461 11.8919 84.5756 8.51602C83.7088 5.14012 81.0813 2.52878 77.6839 1.66731C74.2864 0.804041 70.6359 1.82166 68.1071 4.33429L51.2259 21.1097C48.8407 23.4787 45.0268 23.529 42.7063 21.2227C40.3857 18.9165 40.4359 15.126 42.8193 12.757L47.8087 7.79992L50.8885 10.8599L52.9686 0L42.0386 2.06754L45.1184 5.12756L40.1308 10.0846Z"
      fill="#E2E2E2"
    />
    <path
      d="M7.7125 44.2193L0 44.047C0 45.9859 0.560126 47.7094 1.68038 49.2605C2.80063 50.8116 4.30866 52.0611 6.29065 52.9228C8.22954 53.8277 10.427 54.2585 12.8398 54.2585C15.1665 54.2585 17.2346 53.8277 19.1305 52.9659C21.0263 52.1042 22.4912 50.9409 23.5684 49.3897C24.6025 47.8817 25.1626 46.2013 25.1626 44.3055C25.1626 42.4097 24.7317 40.8586 23.9131 39.6952C23.0944 38.575 22.0173 37.7133 20.6816 37.11C19.3028 36.5499 17.6224 36.076 15.5974 35.6451C13.5723 35.2573 12.1073 34.9557 11.2456 34.6972C10.3408 34.4387 9.69449 34.1802 9.26362 33.8355C8.83276 33.4908 8.66041 33.0168 8.66041 32.4136C8.66041 31.5519 9.0051 30.8625 9.69449 30.3885C10.3839 29.9577 11.3318 29.6991 12.452 29.6991C13.7446 29.6991 14.7356 30.0438 15.5112 30.6901C16.2437 31.3364 16.6745 32.1982 16.7607 33.2323H24.4732C24.4732 31.4226 23.9131 29.7853 22.879 28.3204C21.8449 26.8554 20.38 25.6921 18.5703 24.8304C16.7607 24.0117 14.6925 23.5808 12.452 23.5808C10.2115 23.5808 8.22954 24.0117 6.41991 24.8304C4.61027 25.649 3.2315 26.7693 2.19742 28.1911C1.16334 29.6561 0.689386 31.2503 0.689386 33.0168C0.689386 34.9988 1.07717 36.593 1.89581 37.7994C2.67137 39.0059 3.74854 39.8676 5.08422 40.4708C6.37682 41.074 8.0572 41.548 10.0823 41.9788C12.1504 42.4097 13.6154 42.7544 14.5202 43.0129C15.425 43.2714 16.1144 43.53 16.5453 43.8746C16.9761 44.2193 17.1916 44.6933 17.1916 45.2965C17.1916 46.2444 16.8038 46.9769 16.0282 47.4508C15.2527 47.9679 14.2186 48.1833 12.9691 48.1833C11.3749 48.1833 10.1254 47.8386 9.22054 47.1061C8.27263 46.3737 7.79868 45.4258 7.7125 44.2193Z"
      fill="#E2E2E2"
    />
    <path
      d="M25.7187 31.7673L33.0434 54H40.9282L44.0736 42.2374L47.1758 54H55.0176L62.2992 31.7673H54.6729L50.752 46.2013L47.4774 31.7673H40.8421L37.5244 46.1582L33.6035 31.7673H25.7187Z"
      fill="#E2E2E2"
    />
    <path
      d="M85.4142 47.8817H84.9402C84.4232 47.8817 84.0785 47.7955 83.8631 47.6232C83.6476 47.4508 83.5614 47.0631 83.5614 46.546V39.6522C83.5614 36.9808 82.6566 34.9557 80.847 33.5769C79.0374 32.1982 76.4522 31.5088 73.1776 31.5088C69.9892 31.5088 67.4901 32.1551 65.5943 33.4046C63.6985 34.6972 62.6213 36.4637 62.449 38.7904H69.6014C69.6445 38.1441 69.9461 37.6271 70.5493 37.2393C71.1525 36.8515 71.885 36.6361 72.8329 36.6361C73.8239 36.6361 74.6425 36.8946 75.2457 37.3686C75.8489 37.8425 76.1936 38.4457 76.1936 39.2213V40.083H72.9191C69.3859 40.083 66.6715 40.7724 64.8188 42.065C62.923 43.4007 62.0181 45.2965 62.0181 47.7094C62.0181 49.8206 62.7506 51.4579 64.3017 52.5781C65.8528 53.6984 67.8779 54.2585 70.3769 54.2585C71.9711 54.2585 73.3499 53.9569 74.5133 53.3106C75.6335 52.6643 76.6245 51.6733 77.4862 50.3807V50.5531C77.4862 51.6302 77.7878 52.492 78.4772 53.0952C79.1235 53.6984 80.2007 54 81.6656 54H85.4142V47.8817ZM76.1936 44.6933V44.7795C76.1505 46.1151 75.7628 47.1923 74.9872 47.9679C74.2116 48.7434 73.2207 49.1312 71.9711 49.1312C71.1956 49.1312 70.5924 48.9589 70.1615 48.6142C69.7306 48.2695 69.5152 47.7524 69.5152 47.1492C69.5152 46.4168 69.8168 45.8135 70.4631 45.3827C71.0663 44.9518 71.9281 44.6933 73.0483 44.6933H76.1936Z"
      fill="#E2E2E2"
    />
    <path
      d="M106.495 32.9306C104.944 31.9827 103.22 31.5088 101.281 31.5088C98.5239 31.5088 96.3265 32.5429 94.7323 34.5679L94.1291 31.7673H87.5799V62.6173H95.0339V51.4579C96.585 53.3537 98.6963 54.2585 101.281 54.2585C103.177 54.2585 104.901 53.8277 106.452 52.8797C108.003 51.9749 109.209 50.6392 110.071 48.9158C110.933 47.1923 111.364 45.2103 111.364 42.9267C111.364 40.6862 110.933 38.7042 110.071 36.9808C109.209 35.2573 108.003 33.8786 106.495 32.9306ZM102.574 46.8476C101.755 47.8817 100.678 48.3557 99.3426 48.3557C97.9638 48.3557 96.8867 47.8817 96.1111 46.8476C95.3355 45.8135 94.9478 44.4779 94.9478 42.8406C94.9478 41.2033 95.3355 39.9107 96.1111 38.9197C96.8867 37.9287 97.9638 37.4117 99.3426 37.4117C100.721 37.4117 101.799 37.9287 102.574 38.9197C103.35 39.9107 103.781 41.2033 103.781 42.8406C103.781 44.4779 103.35 45.8135 102.574 46.8476Z"
      fill="#E2E2E2"
    />
  </svg>

  <svg id="logo-icon2" width="75" height="42" viewBox="0 0 75 42" fill="none" xmlns="http://www.w3.org/2000/svg">
    <path
      fill-rule="evenodd"
      clip-rule="evenodd"
      d="M26.9174 6.76417C25.22 8.44949 24.5338 10.8824 25.1165 13.1467C25.6991 15.4111 27.4615 17.1626 29.7391 17.7404C32.0179 18.3195 34.4664 17.6369 36.1626 15.9516L47.4867 4.69964C49.0866 3.11062 51.6435 3.07692 53.2 4.6238C54.7565 6.17069 54.724 8.71312 53.1241 10.3021L49.4754 13.928L47.4097 11.8755L46.0121 19.1621L53.3456 17.7741L51.2799 15.7205L54.9286 12.0946C56.6248 10.4093 57.3122 7.9764 56.7283 5.71204C56.1469 3.44769 54.3845 1.69616 52.1057 1.11833C49.8269 0.539303 47.3784 1.22186 45.6822 2.90718L34.3593 14.1591C32.7594 15.7481 30.2013 15.7819 28.6448 14.235C27.0883 12.6881 27.122 10.1456 28.7207 8.55663L32.0672 5.23173L34.133 7.28421L35.5282 0L28.197 1.38678L30.2627 3.43926L26.9174 6.76417Z"
      fill="#734792"
    />
    <path
      d="M5.17309 29.6597L0 29.5441C0 30.8446 0.375699 32.0006 1.1271 33.041C1.8785 34.0814 2.89 34.9195 4.21939 35.4975C5.51989 36.1044 6.99379 36.3934 8.61219 36.3934C10.1728 36.3934 11.56 36.1044 12.8316 35.5264C14.1032 34.9484 15.0858 34.1681 15.8083 33.1277C16.5019 32.1162 16.8776 30.9891 16.8776 29.7175C16.8776 28.4459 16.5886 27.4055 16.0395 26.6252C15.4904 25.8738 14.7679 25.2958 13.872 24.8912C12.9472 24.5155 11.8201 24.1976 10.4618 23.9086C9.10349 23.6485 8.12089 23.4462 7.54289 23.2728C6.93599 23.0994 6.50249 22.926 6.21349 22.6948C5.92449 22.4636 5.80889 22.1457 5.80889 21.7411C5.80889 21.1631 6.04009 20.7007 6.50249 20.3828C6.96489 20.0938 7.60069 19.9204 8.35209 19.9204C9.21909 19.9204 9.88378 20.1516 10.404 20.5851C10.8953 21.0186 11.1843 21.5966 11.2421 22.2902H16.4152C16.4152 21.0764 16.0395 19.9782 15.3459 18.9956C14.6523 18.013 13.6697 17.2327 12.4559 16.6547C11.2421 16.1056 9.85489 15.8166 8.35209 15.8166C6.84929 15.8166 5.51989 16.1056 4.30609 16.6547C3.0923 17.2038 2.1675 17.9552 1.4739 18.9089C0.780299 19.8915 0.462399 20.9608 0.462399 22.1457C0.462399 23.4751 0.722499 24.5444 1.2716 25.3536C1.7918 26.1628 2.5143 26.7408 3.41019 27.1454C4.27719 27.55 5.40429 27.8679 6.76259 28.1569C8.14979 28.4459 9.13239 28.6771 9.73928 28.8505C10.3462 29.0239 10.8086 29.1973 11.0976 29.4285C11.3866 29.6597 11.5311 29.9776 11.5311 30.3822C11.5311 31.018 11.271 31.5093 10.7508 31.8272C10.2306 32.174 9.53699 32.3185 8.69889 32.3185C7.62959 32.3185 6.79149 32.0873 6.18459 31.596C5.54879 31.1047 5.23089 30.4689 5.17309 29.6597Z"
      fill="#734792"
    />
    <path
      d="M17.2506 21.3076L22.1636 36.22H27.4522L29.5619 28.3303L31.6427 36.22H36.9025L41.7866 21.3076H36.6713L34.0414 30.9891L31.845 21.3076H27.3944L25.1692 30.9602L22.5393 21.3076H17.2506Z"
      fill="#734792"
    />
    <path
      d="M57.2908 32.1162H56.9729C56.6261 32.1162 56.3949 32.0584 56.2504 31.9428C56.1059 31.8272 56.0481 31.5671 56.0481 31.2203V26.5963C56.0481 24.8045 55.4412 23.4462 54.2274 22.5214C53.0136 21.5966 51.2796 21.1342 49.0832 21.1342C46.9446 21.1342 45.2684 21.5677 43.9968 22.4058C42.7252 23.2728 42.0027 24.4577 41.8871 26.0183H46.6845C46.7134 25.5848 46.9157 25.238 47.3203 24.9779C47.7249 24.7178 48.2162 24.5733 48.852 24.5733C49.5167 24.5733 50.0658 24.7467 50.4704 25.0646C50.875 25.3825 51.1062 25.7871 51.1062 26.3073V26.8853H48.9098C46.54 26.8853 44.7193 27.3477 43.4766 28.2147C42.205 29.1106 41.5981 30.3822 41.5981 32.0006C41.5981 33.4167 42.0894 34.5149 43.1298 35.2663C44.1702 36.0177 45.5285 36.3934 47.2047 36.3934C48.274 36.3934 49.1988 36.1911 49.9791 35.7576C50.7305 35.3241 51.3952 34.6594 51.9732 33.7924V33.908C51.9732 34.6305 52.1755 35.2085 52.6379 35.6131C53.0714 36.0177 53.7939 36.22 54.7765 36.22H57.2908V32.1162ZM51.1062 29.9776V30.0354C51.0773 30.9313 50.8172 31.6538 50.297 32.174C49.7768 32.6942 49.1121 32.9543 48.274 32.9543C47.7538 32.9543 47.3492 32.8387 47.0602 32.6075C46.7712 32.3763 46.6267 32.0295 46.6267 31.6249C46.6267 31.1336 46.829 30.729 47.2625 30.44C47.6671 30.151 48.2451 29.9776 48.9965 29.9776H51.1062Z"
      fill="#734792"
    />
    <path
      d="M71.4305 22.0879C70.3901 21.4521 69.2341 21.1342 67.9336 21.1342C66.084 21.1342 64.6101 21.8278 63.5408 23.1861L63.1362 21.3076H58.7434V42H63.7431V34.5149C64.7835 35.7865 66.1996 36.3934 67.9336 36.3934C69.2052 36.3934 70.3612 36.1044 71.4016 35.4686C72.442 34.8617 73.2512 33.9658 73.8292 32.8098C74.4072 31.6538 74.6962 30.3244 74.6962 28.7927C74.6962 27.2899 74.4072 25.9605 73.8292 24.8045C73.2512 23.6485 72.442 22.7237 71.4305 22.0879ZM68.8006 31.4226C68.2515 32.1162 67.529 32.4341 66.6331 32.4341C65.7083 32.4341 64.9858 32.1162 64.4656 31.4226C63.9454 30.729 63.6853 29.8331 63.6853 28.7349C63.6853 27.6367 63.9454 26.7697 64.4656 26.105C64.9858 25.4403 65.7083 25.0935 66.6331 25.0935C67.5579 25.0935 68.2804 25.4403 68.8006 26.105C69.3208 26.7697 69.6098 27.6367 69.6098 28.7349C69.6098 29.8331 69.3208 30.729 68.8006 31.4226Z"
      fill="#734792"
    />
  </svg>

  <svg id="danger-icon" viewBox="0 0 16 13" fill="none" xmlns="http://www.w3.org/2000/svg">
    <path
      fill-rule="evenodd"
      clip-rule="evenodd"
      d="M8.66666 7.66536C8.66666 8.03336 8.368 8.33203 8 8.33203C7.632 8.33203 7.33333 8.03336 7.33333 7.66536V4.9987C7.33333 4.6307 7.632 4.33203 8 4.33203C8.368 4.33203 8.66666 4.6307 8.66666 4.9987V7.66536ZM8 10.332C7.632 10.332 7.33333 10.0334 7.33333 9.66537C7.33333 9.29737 7.632 8.9987 8 8.9987C8.368 8.9987 8.66666 9.29737 8.66666 9.66537C8.66666 10.0334 8.368 10.332 8 10.332ZM15.0407 9.86736L9.926 1.38803C9.52666 0.726698 8.80666 0.332031 8 0.332031C7.19333 0.332031 6.47333 0.726698 6.074 1.38803L0.959331 9.86736C0.580664 10.496 0.569331 11.252 0.929331 11.8894C1.31533 12.574 2.06533 12.9987 2.88533 12.9987H13.1147C13.9347 12.9987 14.6847 12.574 15.0707 11.8894C15.4307 11.252 15.4193 10.496 15.0407 9.86736Z"
      fill="#E11900"
    />
  </svg>

  <svg id="close-icon" viewBox="0 0 12 13" fill="none" xmlns="http://www.w3.org/2000/svg">
    <path
      fill-rule="evenodd"
      clip-rule="evenodd"
      d="M7.41425 6.50025L11.7072 2.20725C12.0982 1.81625 12.0982 1.18425 11.7072 0.79325C11.3162 0.40225 10.6842 0.40225 10.2933 0.79325L6.00025 5.08625L1.70725 0.79325C1.31625 0.40225 0.68425 0.40225 0.29325 0.79325C-0.09775 1.18425 -0.09775 1.81625 0.29325 2.20725L4.58625 6.50025L0.29325 10.7933C-0.09775 11.1842 -0.09775 11.8162 0.29325 12.2072C0.48825 12.4022 0.74425 12.5002 1.00025 12.5002C1.25625 12.5002 1.51225 12.4022 1.70725 12.2072L6.00025 7.91425L10.2933 12.2072C10.4882 12.4022 10.7443 12.5002 11.0002 12.5002C11.2562 12.5002 11.5122 12.4022 11.7072 12.2072C12.0982 11.8162 12.0982 11.1842 11.7072 10.7933L7.41425 6.50025Z"
      fill="#000"
    />
  </svg>

  <svg id="customers-icon" viewBox="0 0 22 19" fill="none" xmlns="http://www.w3.org/2000/svg">
    <path
      fill-rule="evenodd"
      clip-rule="evenodd"
      d="M10.9725 17.3681C7.73349 17.3681 4.96649 16.8781 4.96649 14.9161C4.96649 12.9541 7.71549 11.2461 10.9725 11.2461C14.2115 11.2461 16.9785 12.9381 16.9785 14.8991C16.9785 16.8601 14.2295 17.3681 10.9725 17.3681Z"
      stroke-width="1.5"
      stroke-linecap="round"
      stroke-linejoin="round"
    />
    <path
      fill-rule="evenodd"
      clip-rule="evenodd"
      d="M10.9725 8.449C13.0985 8.449 14.8225 6.726 14.8225 4.6C14.8225 2.474 13.0985 0.75 10.9725 0.75C8.84651 0.75 7.12251 2.474 7.12251 4.6C7.11651 6.718 8.82651 8.442 10.9455 8.449H10.9725Z"
      stroke-width="1.5"
      stroke-linecap="round"
      stroke-linejoin="round"
    />
    <path
      d="M17.3622 7.393C18.5992 7.062 19.5112 5.934 19.5112 4.591C19.5112 3.19 18.5182 2.02 17.1962 1.75"
      stroke-width="1.5"
      stroke-linecap="round"
      stroke-linejoin="round"
    />
    <path
      d="M17.9432 10.543C19.6972 10.543 21.1952 11.732 21.1952 12.794C21.1952 13.419 20.6782 14.1 19.8942 14.284"
      stroke-width="1.5"
      stroke-linecap="round"
      stroke-linejoin="round"
    />
    <path
      d="M4.58384 7.393C3.34584 7.062 2.43384 5.934 2.43384 4.591C2.43384 3.19 3.42784 2.02 4.74884 1.75"
      stroke-width="1.5"
      stroke-linecap="round"
      stroke-linejoin="round"
    />
    <path
      d="M4.00182 10.543C2.24782 10.543 0.749817 11.732 0.749817 12.794C0.749817 13.419 1.26682 14.1 2.05182 14.284"
      stroke-width="1.5"
      stroke-linecap="round"
      stroke-linejoin="round"
    />
  </svg>

  <svg id="logout-icon" viewBox="0 0 22 20" fill="none" xmlns="http://www.w3.org/2000/svg">
    <path d="M20.791 10.1211H8.75" stroke-width="1.5" stroke-linecap="round" stroke-linejoin="round" />
    <path d="M17.8643 7.20312L20.7923 10.1191L17.8643 13.0351" stroke-width="1.5" stroke-linecap="round" stroke-linejoin="round" />
    <path
      d="M15.3598 5.63C15.0298 2.05 13.6898 0.75 8.3598 0.75C1.2588 0.75 1.2588 3.06 1.2588 10C1.2588 16.94 1.2588 19.25 8.3598 19.25C13.6898 19.25 15.0298 17.95 15.3598 14.37"
      stroke-width="1.5"
      stroke-linecap="round"
      stroke-linejoin="round"
    />
  </svg>

  <svg id="offers-icon" viewBox="0 0 20 22" fill="none" xmlns="http://www.w3.org/2000/svg">
    <path d="M9.96106 15.5147V12.8867" stroke-width="1.5" stroke-linecap="round" stroke-linejoin="round" />
    <path
      d="M19.0895 10.4766L19.0605 10.4976C16.6385 11.9896 13.4405 12.8906 9.95646 12.8906C6.47246 12.8906 3.28346 11.9896 0.862458 10.4976L0.832458 10.4766"
      stroke-width="1.5"
      stroke-linecap="round"
      stroke-linejoin="round"
    />
    <path
      fill-rule="evenodd"
      clip-rule="evenodd"
      d="M0.750183 12.3514C0.750183 6.19944 3.05318 4.14844 9.96118 4.14844C16.8702 4.14844 19.1722 6.19944 19.1722 12.3514C19.1722 18.5034 16.8702 20.5544 9.96118 20.5544C3.05318 20.5544 0.750183 18.5034 0.750183 12.3514Z"
      stroke-width="1.5"
      stroke-linecap="round"
      stroke-linejoin="round"
    />
    <path
      d="M13.2238 4.36822V3.73822C13.2238 2.47422 12.3008 1.44922 11.1638 1.44922H8.75879C7.62179 1.44922 6.69879 2.47422 6.69879 3.73822V4.36822"
      stroke-width="1.5"
      stroke-linecap="round"
      stroke-linejoin="round"
    />
  </svg>

  <svg id="overview-icon" viewBox="0 0 22 22" fill="none" xmlns="http://www.w3.org/2000/svg">
    <path d="M8.07874 15.1367H13.8937" stroke-width="1.5" stroke-linecap="round" stroke-linejoin="round" />
    <path
      fill-rule="evenodd"
      clip-rule="evenodd"
      d="M1.40002 12.713C1.40002 7.082 2.01402 7.475 5.31902 4.41C6.76502 3.246 9.01502 1 10.958 1C12.9 1 15.195 3.235 16.654 4.41C19.959 7.475 20.572 7.082 20.572 12.713C20.572 21 18.613 21 10.986 21C3.35903 21 1.40002 21 1.40002 12.713Z"
      stroke-width="1.5"
      stroke-linecap="round"
      stroke-linejoin="round"
    />
  </svg>

  <svg id="reports-icon" viewBox="0 0 20 20" fill="none" xmlns="http://www.w3.org/2000/svg">
    <path d="M13.5958 13.6953H6.37579" stroke-width="1.5" stroke-linecap="round" stroke-linejoin="round" />
    <path d="M13.5958 9.9375H6.37579" stroke-width="1.5" stroke-linecap="round" stroke-linejoin="round" />
    <path d="M9.13098 6.17578H6.37598" stroke-width="1.5" stroke-linecap="round" stroke-linejoin="round" />
    <path
      fill-rule="evenodd"
      clip-rule="evenodd"
      d="M1.60999 10C1.60999 16.937 3.70798 19.25 10.001 19.25C16.295 19.25 18.392 16.937 18.392 10C18.392 3.063 16.295 0.75 10.001 0.75C3.70798 0.75 1.60999 3.063 1.60999 10Z"
      stroke-width="1.5"
      stroke-linecap="round"
      stroke-linejoin="round"
    />
  </svg>

  <svg id="roles-icon" viewBox="0 0 18 22" fill="none" xmlns="http://www.w3.org/2000/svg">
    <path d="M5.54242 8.21875H12.3974" stroke-width="1.5" stroke-linecap="round" stroke-linejoin="round" />
    <path
      fill-rule="evenodd"
      clip-rule="evenodd"
      d="M8.97024 1.5C2.58324 1.5 1.50424 2.432 1.50424 9.929C1.50424 18.322 1.34724 20.5 2.94324 20.5C4.53824 20.5 7.14324 16.816 8.97024 16.816C10.7972 16.816 13.4022 20.5 14.9972 20.5C16.5932 20.5 16.4362 18.322 16.4362 9.929C16.4362 2.432 15.3572 1.5 8.97024 1.5Z"
      stroke-width="1.5"
      stroke-linecap="round"
      stroke-linejoin="round"
    />
  </svg>

  <svg id="settings-icon" viewBox="0 0 20 22" fill="none" xmlns="http://www.w3.org/2000/svg">
    <path
      fill-rule="evenodd"
      clip-rule="evenodd"
      d="M10 8.5C11.3809 8.5 12.5 9.61912 12.5 11C12.5 12.3809 11.3809 13.5 10 13.5C8.61912 13.5 7.5 12.3809 7.5 11C7.5 9.61912 8.61912 8.5 10 8.5Z"
      stroke-width="1.5"
      stroke-linecap="round"
      stroke-linejoin="round"
    />
    <path
      fill-rule="evenodd"
      clip-rule="evenodd"
      d="M18.168 6.25025V6.25025C17.4845 5.05799 15.9712 4.65004 14.7885 5.33852C13.7598 5.93613 12.4741 5.18838 12.4741 3.99218C12.4741 2.61619 11.3659 1.5 9.99976 1.5V1.5C8.63365 1.5 7.52546 2.61619 7.52546 3.99218C7.52546 5.18838 6.23977 5.93613 5.21199 5.33852C4.02829 4.65004 2.51507 5.05799 1.83153 6.25025C1.14896 7.4425 1.55399 8.96665 2.73769 9.65415C3.76546 10.2527 3.76546 11.7473 2.73769 12.3459C1.55399 13.0343 1.14896 14.5585 1.83153 15.7498C2.51507 16.942 4.02829 17.35 5.21101 16.6625H5.21199C6.23977 16.0639 7.52546 16.8116 7.52546 18.0078V18.0078C7.52546 19.3838 8.63365 20.5 9.99976 20.5V20.5C11.3659 20.5 12.4741 19.3838 12.4741 18.0078V18.0078C12.4741 16.8116 13.7598 16.0639 14.7885 16.6625C15.9712 17.35 17.4845 16.942 18.168 15.7498C18.8515 14.5585 18.4455 13.0343 17.2628 12.3459H17.2618C16.2341 11.7473 16.2341 10.2527 17.2628 9.65415C18.4455 8.96665 18.8515 7.4425 18.168 6.25025Z"
      stroke-width="1.5"
      stroke-linecap="round"
      stroke-linejoin="round"
    />
  </svg>

  <svg id="transactions-icon" viewBox="0 0 22 20" fill="none" xmlns="http://www.w3.org/2000/svg">
    <path
      d="M20.1711 12.6774H16.2845C14.8692 12.6774 13.7216 11.5298 13.7216 10.1136C13.7216 8.6984 14.8692 7.55078 16.2845 7.55078H20.1407"
      stroke-width="1.5"
      stroke-linecap="round"
      stroke-linejoin="round"
    />
    <path d="M16.722 10.0543H16.4248" stroke-width="1.5" stroke-linecap="round" stroke-linejoin="round" />
    <path d="M6.6062 6.14416H10.6662" stroke-width="1.5" stroke-linecap="round" stroke-linejoin="round" />
    <path
      fill-rule="evenodd"
      clip-rule="evenodd"
      d="M1.71411 10.2539C1.71411 3.84913 4.03887 1.71484 11.0151 1.71484C17.9903 1.71484 20.3151 3.84913 20.3151 10.2539C20.3151 16.6577 17.9903 18.7929 11.0151 18.7929C4.03887 18.7929 1.71411 16.6577 1.71411 10.2539Z"
      stroke-width="1.5"
      stroke-linecap="round"
      stroke-linejoin="round"
    />
  </svg>

  <svg id="users-icon" viewBox="0 0 20 22" fill="none" xmlns="http://www.w3.org/2000/svg">
    <path
      fill-rule="evenodd"
      clip-rule="evenodd"
      d="M7.55851 20.4562C3.88651 20.4562 0.749512 19.9012 0.749512 17.6772C0.749512 15.4532 3.86651 13.4492 7.55851 13.4492C11.2305 13.4492 14.3665 15.4342 14.3665 17.6572C14.3665 19.8802 11.2505 20.4562 7.55851 20.4562Z"
      stroke-width="1.5"
      stroke-linecap="round"
      stroke-linejoin="round"
    />
    <path
      fill-rule="evenodd"
      clip-rule="evenodd"
      d="M7.55849 10.2788C9.96849 10.2788 11.9225 8.32478 11.9225 5.91478C11.9225 3.50478 9.96849 1.55078 7.55849 1.55078C5.14849 1.55078 3.19449 3.50478 3.19449 5.91478C3.18549 8.31678 5.12649 10.2708 7.52749 10.2788H7.55849Z"
      stroke-width="1.5"
      stroke-linecap="round"
      stroke-linejoin="round"
    />
    <path
      d="M14.8012 9.08059C16.2042 8.70559 17.2382 7.42659 17.2382 5.90459C17.2392 4.31659 16.1122 2.99059 14.6142 2.68359"
      stroke-width="1.5"
      stroke-linecap="round"
      stroke-linejoin="round"
    />
    <path
      d="M15.4608 12.6562C17.4488 12.6562 19.1468 14.0043 19.1468 15.2073C19.1468 15.9163 18.5618 16.6443 17.6718 16.8533"
      stroke-width="1.5"
      stroke-linecap="round"
      stroke-linejoin="round"
    />
  </svg>

  <svg id="supports-icon" viewBox="0 0 22 22" fill="none" xmlns="http://www.w3.org/2000/svg">
    <path d="M14.9394 11.4141H14.9484" stroke-width="2" stroke-linecap="round" stroke-linejoin="round" />
    <path d="M10.9304 11.4141H10.9394" stroke-width="2" stroke-linecap="round" stroke-linejoin="round" />
    <path d="M6.9214 11.4141H6.9304" stroke-width="2" stroke-linecap="round" stroke-linejoin="round" />
    <path
      fill-rule="evenodd"
      clip-rule="evenodd"
      d="M18.071 18.0698C15.0159 21.1264 10.4896 21.7867 6.78631 20.074C6.23961 19.8539 2.70113 20.8339 1.93334 20.067C1.16555 19.2991 2.14639 15.7601 1.92631 15.2134C0.212846 11.5106 0.874111 6.9826 3.9302 3.9271C7.83147 0.0243001 14.1698 0.0243001 18.071 3.9271C21.9803 7.83593 21.9723 14.1681 18.071 18.0698Z"
      stroke-width="1.5"
      stroke-linecap="round"
      stroke-linejoin="round"
    />
  </svg>

  <svg id="notification-icon" viewBox="0 0 18 22" fill="none" xmlns="http://www.w3.org/2000/svg">
    <path
      fill-rule="evenodd"
      clip-rule="evenodd"
      d="M8.9962 1.51562C4.56192 1.51562 2.63525 5.53086 2.63525 8.18515C2.63525 10.169 2.92287 9.58515 1.82477 12.0051C0.48382 15.4537 5.8762 16.8632 8.9962 16.8632C12.1152 16.8632 17.5076 15.4537 16.1676 12.0051C15.0695 9.58515 15.3572 10.169 15.3572 8.18515C15.3572 5.53086 13.4295 1.51562 8.9962 1.51562Z"
      stroke="#2C2C2E"
      stroke-width="1.5"
      stroke-linecap="round"
      stroke-linejoin="round"
    />
    <path
      d="M11.306 19.5117C10.0117 20.9574 7.9927 20.9746 6.68604 19.5117"
      stroke="#2C2C2E"
      stroke-width="1.5"
      stroke-linecap="round"
      stroke-linejoin="round"
    />
  </svg>

  <svg id="chat-icon" viewBox="0 0 22 22" fill="none" xmlns="http://www.w3.org/2000/svg">
    <path d="M14.9394 11.4141H14.9484" stroke="#2C2C2E" stroke-width="2" stroke-linecap="round" stroke-linejoin="round" />
    <path d="M10.9304 11.4141H10.9394" stroke="#2C2C2E" stroke-width="2" stroke-linecap="round" stroke-linejoin="round" />
    <path d="M6.9214 11.4141H6.9304" stroke="#2C2C2E" stroke-width="2" stroke-linecap="round" stroke-linejoin="round" />
    <path
      fill-rule="evenodd"
      clip-rule="evenodd"
      d="M18.071 18.0698C15.0159 21.1264 10.4896 21.7867 6.78631 20.074C6.23961 19.8539 2.70113 20.8339 1.93334 20.067C1.16555 19.2991 2.14639 15.7601 1.92631 15.2134C0.212846 11.5106 0.874111 6.9826 3.9302 3.9271C7.83147 0.0243001 14.1698 0.0243001 18.071 3.9271C21.9803 7.83593 21.9723 14.1681 18.071 18.0698Z"
      stroke="#2C2C2E"
      stroke-width="1.5"
      stroke-linecap="round"
      stroke-linejoin="round"
    />
  </svg>

  <svg id="export-icon" viewBox="0 0 14 16" fill="none" xmlns="http://www.w3.org/2000/svg">
    <path
      fill-rule="evenodd"
      clip-rule="evenodd"
      d="M0.293031 7.70679C0.105559 7.51926 0.000244141 7.26495 0.000244141 6.99979C0.000244141 6.73462 0.105559 6.48031 0.293031 6.29279L6.29303 0.292786C6.48056 0.105315 6.73487 0 7.00003 0C7.26519 0 7.5195 0.105315 7.70703 0.292786L13.707 6.29279C13.8892 6.48139 13.99 6.73399 13.9877 6.99619C13.9854 7.25838 13.8803 7.5092 13.6948 7.6946C13.5094 7.88001 13.2586 7.98518 12.9964 7.98746C12.7342 7.98974 12.4816 7.88894 12.293 7.70679L8.00003 3.41379V14.9998C8.00003 15.265 7.89467 15.5194 7.70714 15.7069C7.5196 15.8944 7.26525 15.9998 7.00003 15.9998C6.73481 15.9998 6.48046 15.8944 6.29292 15.7069C6.10539 15.5194 6.00003 15.265 6.00003 14.9998V3.41379L1.70703 7.70679C1.5195 7.89426 1.26519 7.99957 1.00003 7.99957C0.734866 7.99957 0.480558 7.89426 0.293031 7.70679Z"
      fill="#E2E2E2"
    />
  </svg>
  <svg id="export-icon-purple" viewBox="0 0 14 16" fill="current" xml="http://www.w3.org/2000/svg">
    <path
      fill-rule="evenodd"
      clip-rule="evenodd"
      d="M0.293031 7.70679C0.105559 7.51926 0.000244141 7.26495 0.000244141 6.99979C0.000244141 6.73462 0.105559 6.48031 0.293031 6.29279L6.29303 0.292786C6.48056 0.105315 6.73487 0 7.00003 0C7.26519 0 7.5195 0.105315 7.70703 0.292786L13.707 6.29279C13.8892 6.48139 13.99 6.73399 13.9877 6.99619C13.9854 7.25838 13.8803 7.5092 13.6948 7.6946C13.5094 7.88001 13.2586 7.98518 12.9964 7.98746C12.7342 7.98974 12.4816 7.88894 12.293 7.70679L8.00003 3.41379V14.9998C8.00003 15.265 7.89467 15.5194 7.70714 15.7069C7.5196 15.8944 7.26525 15.9998 7.00003 15.9998C6.73481 15.9998 6.48046 15.8944 6.29292 15.7069C6.10539 15.5194 6.00003 15.265 6.00003 14.9998V3.41379L1.70703 7.70679C1.5195 7.89426 1.26519 7.99957 1.00003 7.99957C0.734866 7.99957 0.480558 7.89426 0.293031 7.70679Z"
    />
  </svg>

  <svg id="angle-down" viewBox="0 0 10 6" fill="none" xmlns="http://www.w3.org/2000/svg">
    <path d="M1 0.5L5 4.5L9 0.5" stroke="#E2E2E2" />
  </svg>

  <svg id="green-up-icon" viewBox="0 0 10 16" fill="none" xmlns="http://www.w3.org/2000/svg">
    <path
      fill-rule="evenodd"
      clip-rule="evenodd"
      d="M0.293031 5.70679C0.10556 5.51926 0.000244141 5.26495 0.000244141 4.99979C0.000244141 4.73462 0.10556 4.48031 0.293031 4.29279L4.29303 0.292786C4.48056 0.105315 4.73487 0 5.00003 0C5.26519 0 5.5195 0.105315 5.70703 0.292786L9.70703 4.29279C9.88919 4.48139 9.98998 4.73399 9.9877 4.99619C9.98543 5.25838 9.88026 5.5092 9.69485 5.6946C9.50944 5.88001 9.25863 5.98518 8.99643 5.98746C8.73423 5.98974 8.48163 5.88894 8.29303 5.70679L6.00003 3.41379V14.9998C6.00003 15.265 5.89467 15.5194 5.70714 15.7069C5.5196 15.8944 5.26525 15.9998 5.00003 15.9998C4.73481 15.9998 4.48046 15.8944 4.29292 15.7069C4.10539 15.5194 4.00003 15.265 4.00003 14.9998V3.41379L1.70703 5.70679C1.5195 5.89426 1.26519 5.99957 1.00003 5.99957C0.734866 5.99957 0.480558 5.89426 0.293031 5.70679Z"
      fill="#47D16C"
    />
  </svg>

  <svg id="usd-icon" viewBox="0 0 6 12" fill="none" xmlns="http://www.w3.org/2000/svg">
    <path
      d="M5.9157 7.30566C5.86004 7.10941 5.79252 6.93861 5.71321 6.79357C5.63395 6.64838 5.52044 6.50676 5.37244 6.36823C5.22462 6.22978 5.09164 6.11827 4.97373 6.03351C4.85589 5.94867 4.69402 5.85382 4.4882 5.74883C4.28257 5.64387 4.11964 5.56577 3.9997 5.5144C3.87961 5.4631 3.70589 5.39278 3.47865 5.30349C3.27718 5.22318 3.12718 5.16178 3.02848 5.11939C2.9299 5.07696 2.80026 5.01673 2.63949 4.93855C2.47878 4.8605 2.35873 4.79126 2.27941 4.73102C2.2001 4.67079 2.11546 4.59714 2.02542 4.5101C1.93537 4.42306 1.87215 4.33041 1.83568 4.2322C1.79931 4.13398 1.78106 4.02681 1.78106 3.91073C1.78106 3.60722 1.90962 3.35937 2.16684 3.16746C2.42407 2.97555 2.75636 2.87955 3.16364 2.87955C3.3436 2.87955 3.52708 2.90519 3.71343 2.95658C3.89979 3.00797 4.0595 3.06586 4.19241 3.13064C4.32543 3.19542 4.45077 3.26687 4.5687 3.34495C4.68661 3.4231 4.77017 3.48221 4.81952 3.52238C4.86882 3.56259 4.90006 3.58935 4.91279 3.60277C4.9686 3.6474 5.02633 3.663 5.08635 3.64965C5.15063 3.6452 5.19998 3.60943 5.23435 3.54253L5.75531 2.56483C5.80673 2.47559 5.7961 2.39075 5.72317 2.31035C5.6974 2.28356 5.66537 2.25234 5.62652 2.2166C5.58805 2.18085 5.50442 2.11614 5.3757 2.02234C5.24712 1.92861 5.11101 1.8449 4.9675 1.77123C4.82382 1.69763 4.63728 1.62281 4.40791 1.54695C4.17867 1.47098 3.94175 1.41969 3.69733 1.39292V0.214285C3.69733 0.151825 3.67807 0.100458 3.6396 0.060256C3.60104 0.0201479 3.55172 0 3.4916 0H2.62343C2.5677 0 2.51948 0.0211799 2.47876 0.0636101C2.43804 0.10604 2.41768 0.156234 2.41768 0.214285V1.41966C1.7446 1.55354 1.19801 1.85267 0.777883 2.31696C0.357805 2.78128 0.147687 3.32138 0.147687 3.93752C0.147687 4.12054 0.165976 4.29464 0.202418 4.45974C0.238816 4.62498 0.283862 4.77343 0.337467 4.90511C0.391026 5.03688 0.467155 5.1663 0.565738 5.29357C0.664322 5.42079 0.75759 5.53018 0.845453 5.62166C0.93336 5.71311 1.04805 5.80801 1.18947 5.90619C1.33098 6.00447 1.45209 6.08377 1.55286 6.144C1.65365 6.20405 1.78759 6.27347 1.95474 6.35142C2.12193 6.42959 2.2538 6.48867 2.35027 6.52895C2.44673 6.56908 2.57854 6.62495 2.74579 6.69623C2.97726 6.78998 3.14878 6.86255 3.26022 6.91391C3.37176 6.96528 3.51318 7.0367 3.68476 7.12822C3.85618 7.21965 3.98152 7.30339 4.0609 7.37931C4.1402 7.45523 4.21198 7.54898 4.27633 7.66056C4.34068 7.77213 4.37291 7.89044 4.37291 8.0155C4.37291 8.3682 4.24108 8.64046 3.97736 8.83228C3.71375 9.02431 3.4082 9.12028 3.06101 9.12028C2.90253 9.12028 2.74379 9.10253 2.58523 9.06683C2.02792 8.95061 1.50707 8.67159 1.02264 8.22965L1.00978 8.21626C0.971177 8.16728 0.919711 8.14716 0.855476 8.15614C0.78687 8.16505 0.737545 8.19186 0.707566 8.23659L0.0452068 9.14055C-0.0191192 9.22982 -0.0147721 9.32132 0.0580901 9.41507C0.0795547 9.44188 0.117056 9.48215 0.170616 9.53563C0.224311 9.58931 0.323998 9.67288 0.469677 9.78695C0.615402 9.90084 0.774032 10.0078 0.945545 10.1084C1.11704 10.2088 1.33456 10.3081 1.59826 10.4064C1.86197 10.5045 2.13519 10.5736 2.41815 10.6138V11.7857C2.41815 11.8438 2.43853 11.894 2.47923 11.9364C2.51998 11.9789 2.56818 12 2.6239 12H3.49207C3.55219 12 3.60151 11.9799 3.64005 11.9398C3.67859 11.8997 3.69778 11.8483 3.69778 11.7857V10.6138C4.37953 10.4978 4.93362 10.193 5.36012 9.69972C5.78666 9.20639 6 8.61821 6 7.93522C5.99977 7.71204 5.97196 7.50221 5.9157 7.30566Z"
      fill="#596080"
    />
  </svg>

  <svg id="euro-icon" viewBox="0 0 10 10" fill="none" xmlns="http://www.w3.org/2000/svg">
    <path
      d="M6.66667 8.61112C5.275 8.61112 4.06667 7.82224 3.46388 6.66667H6.66667V5.55555H3.10279C3.075 5.375 3.05557 5.18888 3.05557 5C3.05557 4.81112 3.07503 4.625 3.10279 4.44445H6.66667V3.33333H3.46388C4.06667 2.17779 5.27221 1.38888 6.66667 1.38888C7.56388 1.38888 8.38333 1.71667 9.01388 2.25833L10 1.27779C9.11667 0.48612 7.94721 0 6.66667 0C4.49167 0 2.64445 1.39167 1.95833 3.33333H0V4.44445H1.7C1.67779 4.62779 1.66667 4.81112 1.66667 5C1.66667 5.18888 1.67779 5.37221 1.7 5.55555H0V6.66667H1.95833C2.64445 8.60833 4.49167 10 6.66667 10C7.94721 10 9.11667 9.51388 10 8.72221L9.01388 7.73888C8.38333 8.28055 7.56388 8.61112 6.66667 8.61112Z"
      fill="#596080"
    />
  </svg>

  <svg id="gbp-icon" viewBox="0 0 11 12" fill="none" xmlns="http://www.w3.org/2000/svg">
    <path
      d="M7.01487 11.4502C4.12121 11.4502 1.75366 8.99695 1.75366 5.99854C1.75366 3.00012 4.12121 0.546875 7.01487 0.546875C8.1548 0.546875 9.29473 0.910319 10.1716 1.63721C10.5223 1.90979 10.61 2.54582 10.347 2.90926C10.0839 3.27271 9.4701 3.36357 9.11936 3.09098C8.50555 2.63668 7.80405 2.3641 7.01487 2.3641C5.08576 2.3641 3.5074 3.99959 3.5074 5.99854C3.5074 7.99748 5.08576 9.63298 7.01487 9.63298C7.80405 9.63298 8.50555 9.36039 9.11936 8.90609C9.4701 8.6335 10.0839 8.72437 10.347 9.08781C10.61 9.45125 10.5223 10.0873 10.1716 10.3599C9.29473 11.0868 8.1548 11.4502 7.01487 11.4502V11.4502Z"
      fill="#596080"
    />
    <path
      d="M7.01495 6.90706H0.876868C0.350747 6.90706 0 6.54362 0 5.99845C0 5.45329 0.350747 5.08984 0.876868 5.08984H7.01495C7.54107 5.08984 7.89181 5.45329 7.89181 5.99845C7.89181 6.54362 7.54107 6.90706 7.01495 6.90706Z"
      fill="#596080"
    />
  </svg>

  <svg id="close-red-icon" viewBox="0 0 24 24" fill="none" xmlns="http://www.w3.org/2000/svg">
    <rect width="24" height="24" rx="12" fill="#FFEFEB" />
    <path
      fill-rule="evenodd"
      clip-rule="evenodd"
      d="M12.9427 12.0002L15.8047 9.13818C16.0654 8.87751 16.0654 8.45617 15.8047 8.1955C15.544 7.93483 15.1227 7.93483 14.862 8.1955L12 11.0575L9.13797 8.1955C8.8773 7.93483 8.45597 7.93483 8.1953 8.1955C7.93463 8.45617 7.93463 8.87751 8.1953 9.13818L11.0573 12.0002L8.1953 14.8622C7.93463 15.1229 7.93463 15.5442 8.1953 15.8049C8.3253 15.9349 8.49597 16.0002 8.66663 16.0002C8.8373 16.0002 9.00797 15.9349 9.13797 15.8049L12 12.9429L14.862 15.8049C14.992 15.9349 15.1627 16.0002 15.3334 16.0002C15.504 16.0002 15.6747 15.9349 15.8047 15.8049C16.0654 15.5442 16.0654 15.1229 15.8047 14.8622L12.9427 12.0002Z"
      fill="#CC0905"
    />
  </svg>

  <svg id="arrow-down" viewBox="0 0 9 12" fill="none" xmlns="http://www.w3.org/2000/svg">
    <path
      d="M4.27273 1.5V10.5M4.27273 10.5L1 6.74599M4.27273 10.5L7.54545 6.74599"
      stroke="#596080"
      stroke-width="1.22727"
      stroke-linecap="round"
      stroke-linejoin="round"
    />
  </svg>

  <svg id="arrow-up" viewBox="0 0 10 6" fill="none" xmlns="http://www.w3.org/2000/svg">
    <path d="M1 5.5L5 1.5L9 5.5" />
  </svg>

  <svg id="angle-down2" viewBox="0 0 10 6" fill="none" xmlns="http://www.w3.org/2000/svg">
    <path d="M1 0.5L5 4.5L9 0.5" />
  </svg>

  <svg id="arrow-left" viewBox="0 0 12 11" fill="none" xmlns="http://www.w3.org/2000/svg">
    <path
      fill-rule="evenodd"
      clip-rule="evenodd"
      d="M10.542 4.85541H2.87918L5.22549 2.03958C5.45412 1.76574 5.41666 1.35822 5.14283 1.13024C4.86835 0.901618 4.46147 0.939077 4.23349 1.21291L1.00433 5.08791C0.979138 5.11826 0.966221 5.15378 0.947492 5.18737C0.931992 5.21449 0.913263 5.23774 0.901638 5.26745C0.872576 5.34172 0.855138 5.41987 0.855138 5.49866C0.855138 5.49931 0.854492 5.5006 0.854492 5.50124C0.854492 5.50189 0.855138 5.50318 0.855138 5.50383C0.855138 5.58262 0.872576 5.66076 0.901638 5.73503C0.913263 5.76474 0.931992 5.78799 0.947492 5.81512C0.966221 5.8487 0.979138 5.88422 1.00433 5.91458L4.23349 9.78958C4.36137 9.94264 4.54478 10.0221 4.72949 10.0221C4.87545 10.0221 5.02205 9.97299 5.14283 9.87224C5.41666 9.64426 5.45412 9.23674 5.22549 8.96291L2.87918 6.14708H10.542C10.8985 6.14708 11.1878 5.85774 11.1878 5.50124C11.1878 5.14474 10.8985 4.85541 10.542 4.85541Z"
      fill="#5B6871"
    />
  </svg>

  <svg id="search-icon" viewBox="0 0 16 16" fill="none" xmlns="http://www.w3.org/2000/svg">
    <path
      d="M11.4351 10.0629H10.7124L10.4563 9.81589C11.3528 8.77301 11.8925 7.4191 11.8925 5.94625C11.8925 2.66209 9.23042 0 5.94625 0C2.66209 0 0 2.66209 0 5.94625C0 9.23042 2.66209 11.8925 5.94625 11.8925C7.4191 11.8925 8.77301 11.3528 9.81589 10.4563L10.0629 10.7124V11.4351L14.6369 16L16 14.6369L11.4351 10.0629ZM5.94625 10.0629C3.66838 10.0629 1.82962 8.22413 1.82962 5.94625C1.82962 3.66838 3.66838 1.82962 5.94625 1.82962C8.22413 1.82962 10.0629 3.66838 10.0629 5.94625C10.0629 8.22413 8.22413 10.0629 5.94625 10.0629Z"
      fill="#E0E0E0"
    />
  </svg>
  <svg id="angle-left" viewBox="0 0 8 12" fill="none" xmlns="http://www.w3.org/2000/svg">
    <path d="M7.70492 1.41L6.29492 0L0.294922 6L6.29492 12L7.70492 10.59L3.12492 6L7.70492 1.41Z" fill="white" />
  </svg>

  <svg id="angle-right" viewBox="0 0 8 12" fill="none" xmlns="http://www.w3.org/2000/svg">
    <path d="M1.70492 0L0.294922 1.41L4.87492 6L0.294922 10.59L1.70492 12L7.70492 6L1.70492 0Z" fill="white" />
  </svg>

  <svg id="export" viewBox="0 0 12 12" fill="none" xmlns="http://www.w3.org/2000/svg">
    <path
      d="M11.2575 7.5H11.2425C11.0456 7.5 10.8567 7.57823 10.7175 7.71747C10.5782 7.85672 10.5 8.04558 10.5 8.2425V10.125C10.5 10.2245 10.4605 10.3198 10.3902 10.3902C10.3198 10.4605 10.2245 10.5 10.125 10.5H1.875C1.77554 10.5 1.68016 10.4605 1.60984 10.3902C1.53951 10.3198 1.5 10.2245 1.5 10.125V1.875C1.5 1.77554 1.53951 1.68016 1.60984 1.60984C1.68016 1.53951 1.77554 1.5 1.875 1.5H5.2575C5.45442 1.5 5.64328 1.42177 5.78253 1.28253C5.92177 1.14328 6 0.954423 6 0.7575V0.7425C6 0.545577 5.92177 0.356719 5.78253 0.217473C5.64328 0.0782275 5.45442 0 5.2575 0H0.7425C0.545577 0 0.356719 0.0782275 0.217473 0.217473C0.0782275 0.356719 0 0.545577 0 0.7425L0 11.2575C0 11.4544 0.0782275 11.6433 0.217473 11.7825C0.356719 11.9218 0.545577 12 0.7425 12H11.2575C11.4544 12 11.6433 11.9218 11.7825 11.7825C11.9218 11.6433 12 11.4544 12 11.2575L11.9925 11.25H12V8.2425C12 8.04558 11.9218 7.85672 11.7825 7.71747C11.6433 7.57823 11.4544 7.5 11.2575 7.5Z"
      fill="#734792"
    />
    <path
      d="M9.35386 2.14184C7.22423 2.29371 5.58511 2.99271 4.47398 4.22721C3.60984 5.19982 3.09882 6.43535 3.02348 7.73421C3.01104 7.84557 3.02222 7.95831 3.0563 8.06506C3.09038 8.17181 3.14659 8.27017 3.22126 8.35372C3.29593 8.43727 3.38738 8.50414 3.48964 8.54995C3.5919 8.59576 3.70268 8.61949 3.81473 8.61959L3.85223 8.61584C4.02291 8.59717 4.18156 8.51899 4.30033 8.395C4.41911 8.27102 4.49041 8.10916 4.50173 7.93784C4.55903 6.93526 4.94505 5.97949 5.60011 5.21834C6.42773 4.30634 7.69748 3.78209 9.37486 3.64709V3.74984H9.35386L9.33773 3.85034L8.47336 4.72296C8.33373 4.8645 8.25545 5.05533 8.25545 5.25415C8.25545 5.45297 8.33373 5.6438 8.47336 5.78534C8.54209 5.85507 8.624 5.91044 8.71432 5.94823C8.80464 5.98603 8.90158 6.00549 8.99949 6.00549C9.09739 6.00549 9.19433 5.98603 9.28465 5.94823C9.37497 5.91044 9.45688 5.85507 9.52561 5.78534L11.7816 3.50759C11.9214 3.36603 11.9997 3.17512 11.9997 2.97621C11.9997 2.7773 11.9214 2.58639 11.7816 2.44484L9.53161 0.219962C9.46288 0.150289 9.381 0.0949657 9.29071 0.0572053C9.20043 0.0194449 9.10354 0 9.00567 0C8.90781 0 8.81092 0.0194449 8.72063 0.0572053C8.63034 0.0949657 8.54846 0.150289 8.47973 0.219962C8.3399 0.361471 8.26149 0.552395 8.26149 0.751337C8.26149 0.950278 8.3399 1.1412 8.47973 1.28271L9.35386 2.14146V2.14184Z"
      fill="#734792"
    />
  </svg>

  <svg id="zoomplus" viewBox="0 0 16 16" fill="none" xmlns="http://www.w3.org/2000/svg">
    <path
      d="M7.20078 13.5969C10.7354 13.5969 13.6008 10.7315 13.6008 7.19687C13.6008 3.66225 10.7354 0.796875 7.20078 0.796875C3.66616 0.796875 0.800781 3.66225 0.800781 7.19687C0.800781 10.7315 3.66616 13.5969 7.20078 13.5969Z"
      stroke="#758089"
      stroke-linecap="round"
      stroke-linejoin="round"
    />
    <path
      d="M4.80078 7.19687H9.60078M15.2008 15.1969L11.7208 11.7169L15.2008 15.1969ZM7.20078 4.79688V9.59687V4.79688Z"
      stroke="#758089"
      stroke-linecap="round"
      stroke-linejoin="round"
    />
  </svg>

  <svg id="zoomminus" viewBox="0 0 16 16" fill="none" xmlns="http://www.w3.org/2000/svg">
    <path
      d="M7.20078 13.5969C10.7354 13.5969 13.6008 10.7315 13.6008 7.19687C13.6008 3.66225 10.7354 0.796875 7.20078 0.796875C3.66616 0.796875 0.800781 3.66225 0.800781 7.19687C0.800781 10.7315 3.66616 13.5969 7.20078 13.5969Z"
      stroke="#758089"
      stroke-linecap="round"
      stroke-linejoin="round"
    />
    <path
      d="M4.80078 7.19531H9.60078M15.2008 15.1953L11.7208 11.7153L15.2008 15.1953Z"
      stroke="#758089"
      stroke-linecap="round"
      stroke-linejoin="round"
    />
  </svg>

  <svg id="reload-right" viewBox="0 0 16 15" fill="none" xmlns="http://www.w3.org/2000/svg">
    <path d="M15.2738 1.90625V6.26989H10.9102" stroke="#758089" stroke-linecap="round" stroke-linejoin="round" />
    <path
      d="M13.4475 9.90555C12.9748 11.2437 12.0799 12.3919 10.8978 13.1772C9.71573 13.9625 8.31042 14.3423 6.89366 14.2594C5.47691 14.1766 4.12547 13.6355 3.043 12.7177C1.96053 11.7999 1.20567 10.5552 0.89217 9.17104C0.578673 7.78693 0.723524 6.33841 1.30489 5.04378C1.88627 3.74915 2.87266 2.67854 4.11543 1.99329C5.35821 1.30803 6.79004 1.04526 8.19515 1.24456C9.60026 1.44387 10.9025 2.09445 11.9057 3.09828L15.273 6.26919"
      stroke="#758089"
      stroke-linecap="round"
      stroke-linejoin="round"
    />
  </svg>

  <svg id="reload-left" viewBox="0 0 16 15" fill="none" xmlns="http://www.w3.org/2000/svg">
    <path d="M0.726207 1.90625V6.26989H5.08984" stroke="#758089" stroke-width="0.727273" stroke-linecap="round" stroke-linejoin="round" />
    <path
      d="M2.55246 9.90555C3.02521 11.2437 3.92006 12.3919 5.10216 13.1772C6.28427 13.9625 7.68958 14.3423 9.10634 14.2594C10.5231 14.1766 11.8745 13.6355 12.957 12.7177C14.0395 11.7999 14.7943 10.5552 15.1078 9.17104C15.4213 7.78693 15.2765 6.33841 14.6951 5.04378C14.1137 3.74915 13.1273 2.67854 11.8846 1.99329C10.6418 1.30803 9.20996 1.04526 7.80485 1.24456C6.39974 1.44387 5.09747 2.09445 4.09427 3.09828L0.727002 6.26919"
      stroke="#758089"
      stroke-linecap="round"
      stroke-linejoin="round"
    />
  </svg>

  <svg id="grid-vertical" viewBox="0 0 12 16" fill="none" xmlns="http://www.w3.org/2000/svg">
    <path
      d="M9.6 12.8346H2.4C1.4 12.8346 1 12.408 1 11.348V10.6546C1 9.59464 1.4 9.16797 2.4 9.16797H9.6C10.6 9.16797 11 9.59464 11 10.6546V11.348C11 12.408 10.6 12.8346 9.6 12.8346Z"
      stroke="#758089"
      stroke-linecap="round"
      stroke-linejoin="round"
    />
    <path
      d="M8.26732 7.16667H3.73398C2.73398 7.16667 2.33398 6.74 2.33398 5.68V4.98667C2.33398 3.92667 2.73398 3.5 3.73398 3.5H8.26732C9.26732 3.5 9.66732 3.92667 9.66732 4.98667V5.68C9.66732 6.74 9.26732 7.16667 8.26732 7.16667Z"
      stroke="#758089"
      stroke-linecap="round"
      stroke-linejoin="round"
    />
    <path d="M6 14.6664V13.0664" stroke="#758089" stroke-linecap="round" stroke-linejoin="round" />
    <path d="M6 8.66536V7.33203" stroke="#758089" stroke-linecap="round" stroke-linejoin="round" />
    <path d="M6 1.33203V3.12536" stroke="#758089" stroke-linecap="round" stroke-linejoin="round" />
  </svg>

  <svg id="grid-horiz" viewBox="0 0 16 12" fill="none" xmlns="http://www.w3.org/2000/svg">
    <path
      d="M3.16602 9.6V2.4C3.16602 1.4 3.59268 1 4.65268 1H5.34602C6.40602 1 6.83268 1.4 6.83268 2.4V9.6C6.83268 10.6 6.40602 11 5.34602 11H4.65268C3.59268 11 3.16602 10.6 3.16602 9.6Z"
      stroke="#758089"
      stroke-linecap="round"
      stroke-linejoin="round"
    />
    <path
      d="M8.83398 8.26536V3.73203C8.83398 2.73203 9.26065 2.33203 10.3207 2.33203H11.014C12.074 2.33203 12.5007 2.73203 12.5007 3.73203V8.26536C12.5007 9.26536 12.074 9.66536 11.014 9.66536H10.3207C9.26065 9.66536 8.83398 9.26536 8.83398 8.26536Z"
      stroke="#758089"
      stroke-linecap="round"
      stroke-linejoin="round"
    />
    <path d="M1.33398 6H2.93398" stroke="#758089" stroke-linecap="round" stroke-linejoin="round" />
    <path d="M7.33398 6H8.66732" stroke="#758089" stroke-linecap="round" stroke-linejoin="round" />
    <path d="M14.6664 6H12.873" stroke="#758089" stroke-linecap="round" stroke-linejoin="round" />
  </svg>

  <svg id="action" viewBox="0 0 15 3" fill="none" xmlns="http://www.w3.org/2000/svg">
    <path
      d="M1.74 2.12C1.516 2.12 1.328 2.044 1.176 1.892C1.032 1.732 0.96 1.544 0.96 1.328C0.96 1.104 1.032 0.92 1.176 0.776C1.328 0.624 1.516 0.548 1.74 0.548C1.964 0.548 2.148 0.624 2.292 0.776C2.444 0.92 2.52 1.104 2.52 1.328C2.52 1.544 2.444 1.732 2.292 1.892C2.148 2.044 1.964 2.12 1.74 2.12ZM7.71656 2.12C7.49256 2.12 7.30456 2.044 7.15256 1.892C7.00856 1.732 6.93656 1.544 6.93656 1.328C6.93656 1.104 7.00856 0.92 7.15256 0.776C7.30456 0.624 7.49256 0.548 7.71656 0.548C7.94056 0.548 8.12456 0.624 8.26856 0.776C8.42056 0.92 8.49656 1.104 8.49656 1.328C8.49656 1.544 8.42056 1.732 8.26856 1.892C8.12456 2.044 7.94056 2.12 7.71656 2.12ZM13.6931 2.12C13.4691 2.12 13.2811 2.044 13.1291 1.892C12.9851 1.732 12.9131 1.544 12.9131 1.328C12.9131 1.104 12.9851 0.92 13.1291 0.776C13.2811 0.624 13.4691 0.548 13.6931 0.548C13.9171 0.548 14.1011 0.624 14.2451 0.776C14.3971 0.92 14.4731 1.104 14.4731 1.328C14.4731 1.544 14.3971 1.732 14.2451 1.892C14.1011 2.044 13.9171 2.12 13.6931 2.12Z"
      fill="black"
    />
  </svg>
  <svg id="export-filled" viewBox="0 0 14 16" fill="none" xmlns="http://www.w3.org/2000/svg">
    <path
      fill-rule="evenodd"
      clip-rule="evenodd"
      d="M0.293031 7.70679C0.105559 7.51926 0.000244141 7.26495 0.000244141 6.99979C0.000244141 6.73462 0.105559 6.48031 0.293031 6.29279L6.29303 0.292786C6.48056 0.105315 6.73487 0 7.00003 0C7.26519 0 7.5195 0.105315 7.70703 0.292786L13.707 6.29279C13.8892 6.48139 13.99 6.73399 13.9877 6.99619C13.9854 7.25838 13.8803 7.5092 13.6948 7.6946C13.5094 7.88001 13.2586 7.98518 12.9964 7.98746C12.7342 7.98974 12.4816 7.88894 12.293 7.70679L8.00003 3.41379V14.9998C8.00003 15.265 7.89467 15.5194 7.70714 15.7069C7.5196 15.8944 7.26525 15.9998 7.00003 15.9998C6.73481 15.9998 6.48046 15.8944 6.29292 15.7069C6.10539 15.5194 6.00003 15.265 6.00003 14.9998V3.41379L1.70703 7.70679C1.5195 7.89426 1.26519 7.99957 1.00003 7.99957C0.734866 7.99957 0.480558 7.89426 0.293031 7.70679Z"
      fill="#734792"
    />
  </svg>
  <svg id="export-verification" viewBox="0 0 14 16" fill="none" xmlns="http://www.w3.org/2000/svg">
    <path
      fill-rule="evenodd"
      clip-rule="evenodd"
      d="M0.292786 7.70679C0.105315 7.51926 0 7.26495 0 6.99979C0 6.73462 0.105315 6.48031 0.292786 6.29279L6.29279 0.292786C6.48031 0.105315 6.73462 0 6.99979 0C7.26495 0 7.51926 0.105315 7.70679 0.292786L13.7068 6.29279C13.8889 6.48139 13.9897 6.73399 13.9875 6.99619C13.9852 7.25838 13.88 7.5092 13.6946 7.6946C13.5092 7.88001 13.2584 7.98518 12.9962 7.98746C12.734 7.98974 12.4814 7.88894 12.2928 7.70679L7.99979 3.41379V14.9998C7.99979 15.265 7.89443 15.5194 7.70689 15.7069C7.51936 15.8944 7.265 15.9998 6.99979 15.9998C6.73457 15.9998 6.48022 15.8944 6.29268 15.7069C6.10514 15.5194 5.99979 15.265 5.99979 14.9998V3.41379L1.70679 7.70679C1.51926 7.89426 1.26495 7.99957 0.999786 7.99957C0.734622 7.99957 0.480314 7.89426 0.292786 7.70679Z"
      fill="#734792"
    />
  </svg>

  <svg id="verifications-icon" height="20" viewBox="0 0 18 20" fill="none" xmlns="http://www.w3.org/2000/svg">
    <path
      d="M15.9947 2.09595C15.9155 0.92516 14.9407 0 13.7499 0H2.25L2.09595 0.00519013C0.92516 0.0843501 0 1.05913 0 2.25V17.748L0.0051899 17.9021C0.0843599 19.0729 1.05914 19.998 2.25 19.998H9.8175L8.3188 18.498H2.25L2.14823 18.4912C1.78215 18.4415 1.5 18.1277 1.5 17.748V2.25L1.50685 2.14823C1.55651 1.78215 1.8703 1.5 2.25 1.5H13.7499L13.8516 1.50684C14.2177 1.55651 14.4999 1.8703 14.4999 2.25V13.8168L15.6587 12.658C15.7651 12.5516 15.8794 12.4581 15.9999 12.3775V2.25L15.9947 2.09595ZM12.2876 19.998C12.2749 19.9987 12.2622 19.999 12.2495 19.999C12.2369 19.999 12.2243 19.9987 12.2118 19.998C12.0266 19.9887 11.8508 19.9109 11.7191 19.7791L9.2194 17.2773C8.9267 16.9843 8.9269 16.5094 9.2199 16.2166C9.5129 15.9238 9.9878 15.924 10.2806 16.2171L12.2499 18.1881L16.7194 13.7187C17.0122 13.4258 17.4871 13.4258 17.78 13.7187C18.0729 14.0116 18.0729 14.4864 17.78 14.7793L12.78 19.7793C12.6483 19.911 12.4727 19.9887 12.2876 19.998ZM9.8413 14.499C9.7805 14.4966 9.7195 14.4966 9.6587 14.499H7.2461C6.8319 14.499 6.4961 14.1632 6.4961 13.749C6.4961 13.3348 6.8319 12.999 7.2461 12.999H12.2499C12.6642 12.999 12.9999 13.3348 12.9999 13.749C12.9999 14.1632 12.6642 14.499 12.2499 14.499H9.8413ZM5 5.75064C5 6.30292 4.55229 6.75064 4 6.75064C3.44772 6.75064 3 6.30292 3 5.75064C3 5.19835 3.44772 4.75064 4 4.75064C4.55229 4.75064 5 5.19835 5 5.75064ZM6.4961 5.74903C6.4961 5.33482 6.8319 4.99903 7.2461 4.99903H12.2499C12.6642 4.99903 12.9999 5.33482 12.9999 5.74903C12.9999 6.16324 12.6642 6.49903 12.2499 6.49903H7.2461C6.8319 6.49903 6.4961 6.16324 6.4961 5.74903ZM7.2461 8.99902C6.8319 8.99902 6.4961 9.33482 6.4961 9.74902C6.4961 10.1632 6.8319 10.499 7.2461 10.499H12.2499C12.6642 10.499 12.9999 10.1632 12.9999 9.74902C12.9999 9.33482 12.6642 8.99902 12.2499 8.99902H7.2461ZM4 10.749C4.55229 10.749 5 10.3013 5 9.74902C5 9.19672 4.55229 8.74902 4 8.74902C3.44772 8.74902 3 9.19672 3 9.74902C3 10.3013 3.44772 10.749 4 10.749ZM5 13.747C5 14.2993 4.55229 14.747 4 14.747C3.44772 14.747 3 14.2993 3 13.747C3 13.1947 3.44772 12.747 4 12.747C4.55229 12.747 5 13.1947 5 13.747Z"
      fill="white"
    />
  </svg>
</svg>
